<?xml version="1.0" encoding="UTF-8" standalone="no"?>
<!-- Uploaded to: SVG Repo, www.svgrepo.com, Generator: SVG Repo Mixer Tools -->

<svg
   fill="#000000"
   width="800px"
   height="800px"
   viewBox="0 0 36 36"
   version="1.1"
   preserveAspectRatio="xMidYMid meet"
   id="svg1"
   sodipodi:docname="appicon.svg"
   inkscape:version="1.4 (86a8ad7, 2024-10-11)"
   xmlns:inkscape="http://www.inkscape.org/namespaces/inkscape"
   xmlns:sodipodi="http://sodipodi.sourceforge.net/DTD/sodipodi-0.dtd"
   xmlns="http://www.w3.org/2000/svg"
   xmlns:svg="http://www.w3.org/2000/svg">
  <defs
     id="defs1" />
  <sodipodi:namedview
     id="namedview1"
     pagecolor="#ffffff"
     bordercolor="#000000"
     borderopacity="0.25"
     inkscape:showpageshadow="2"
     inkscape:pageopacity="0.0"
     inkscape:pagecheckerboard="0"
     inkscape:deskcolor="#d1d1d1"
     inkscape:zoom="0.509375"
     inkscape:cx="417.17791"
     inkscape:cy="417.17791"
     inkscape:window-width="1920"
     inkscape:window-height="1017"
     inkscape:window-x="1912"
     inkscape:window-y="-8"
     inkscape:window-maximized="1"
     inkscape:current-layer="svg1" />
  <title
     id="title1">library-line</title>
  <path
     d="m 26.88692,23.869682 -3.580884,-9.462246 a 1.0625767,1.0625767 0 0 0 -1.370724,-0.616295 l -1.678871,0.632234 V 12.8667 a 1.0200736,1.0200736 0 0 0 -1.020073,-1.020074 h -2.698945 v -1.10508 A 1.0200736,1.0200736 0 0 0 15.517349,9.7214724 h -3.761521 a 1.0625767,1.0625767 0 0 0 -1.062577,1.0625766 v 14.344786 a 0.53128834,0.53128834 0 0 0 0.531289,0.531288 h 8.500613 a 0.53128834,0.53128834 0 0 0 0.531288,-0.531288 v -6.763301 l 2.656442,7.018319 a 0.53128834,0.53128834 0 0 0 0.685362,0.308148 l 2.980528,-1.136957 A 0.53128834,0.53128834 0 0 0 26.88692,23.869682 Z M 15.474846,12.818884 V 24.597547 H 11.755828 V 10.784049 h 3.719018 z m 3.719019,11.778663 H 16.537423 V 12.909203 h 2.656442 z m 4.521263,-0.132822 -3.389619,-8.941584 1.987018,-0.754429 3.394933,8.941583 z"
     class="clr-i-outline clr-i-outline-path-1"
     id="path1"
     style="stroke-width:0.531288" />
  <rect
     x="9.0993872"
     y="8.1276073"
     width="19.126381"
     height="19.126381"
     fill-opacity="0"
     id="rect1"
     style="stroke-width:0.531288" />
</svg>
